<?xml version="1.0" encoding="utf-8"?>
<!-- Generator: Adobe Illustrator 16.0.0, SVG Export Plug-In . SVG Version: 6.00 Build 0)  -->
<!DOCTYPE svg PUBLIC "-//W3C//DTD SVG 1.1//EN" "http://www.w3.org/Graphics/SVG/1.1/DTD/svg11.dtd">
<svg version="1.1" id="svg2" xmlns:svg="http://www.w3.org/2000/svg"
	 xmlns="http://www.w3.org/2000/svg" xmlns:xlink="http://www.w3.org/1999/xlink" x="0px" y="0px" width="687.289px"
	 height="714.628px" viewBox="0.211 336.751 687.289 714.628" enable-background="new 0.211 336.751 687.289 714.628"
	 xml:space="preserve">
<g id="g12" transform="matrix(1.25,0,0,-1.25,0,1052.5)">
	<g id="g14" transform="scale(0.1,0.1)">
		<path id="path16" fill="#231F20" d="M952.5,775c42.008-11.766,60.328-16.078,69.328-25.688
			c173.152,72.156,363.41,130.906,564.762,178.344c-14.41,6.594-31.48,14.789-51.59,24.844C972.5,765,502.5,1590,692.5,1540
			c972.66-255.961,868.558-549.883,872.5-557.5c0,0,65-30,95.289-34.766C3252.187,1307.211,5470,970,5470,970
			c40-22.5,40-362.5,0-400c-1425.93,303.492-2514.82,345.469-3301.941,297.094c-1.41-11.125-44.02-35.766-48.059-54.594
			c227.5-387.5-880-1100-670-670c87.871,179.922,175,632.5,592.5,667.5c15.988,0,29.18,29.969,48.852,54.758
			C1595.828,832.312,1275,765,1054.898,702.578C1075,587.5,1234.988,472.953,80,170C-240.512,85.937,497.039,902.531,952.5,775"/>
		<path id="path18" fill="#231F20" d="M3288.844,4234.421c0-99.109,28.453-191.578,77.633-269.672l-292.484,10.031
			c48.961,80.172,77.164,174.398,77.164,275.219c0,292.07-236.766,528.852-528.844,528.852
			c-292.074,0-528.852-236.781-528.852-528.852s236.777-528.844,528.852-528.844c145.617,0,277.5,58.852,373.141,154.07
			c79.141-197.008,252.57-588.594,306.859-385.227l137.469,383.609c91.492-90.227,217.141-145.922,355.797-145.922
			c279.859,0,506.734,226.875,506.734,506.734c0,279.867-226.875,506.734-506.734,506.734
			C3515.711,4741.156,3288.844,4514.289,3288.844,4234.421z M4784.796,2680.523c17.32-361.727-131.82-1090.89-131.82-1090.89
			c-13.109-140.922-69.18,70.406-106.258,232.773c-190.219-301.844-467.445-474.984-732.359-574.977
			c159.851-38.547,253.758-127.148,240.258-187.43C4030,950,3860,1160,3809.898,989.422
			c-18.156-61.82-134.445-57.797-162.008-15.953C3525,1160,3440,930,3350.109,1022.226
			c-110.781,113.664-244.617,96.164-330.852-6.703C2935,915,2854.367,1163.289,2731.476,976.75
			c-27.57-41.844-143.859-45.867-162.008,15.953c-50.102,170.586-220.098-39.422-244.719,70.586
			c-10.148,45.32,40.41,106.641,134.07,150.672c-254.84,109.633-456.922,297.289-596.711,538.609
			c-35.84-148.031-80.578-296.477-92.109-172.57c0,0-153.621,751.039-130.941,1106.797c0.211,12.82,0.52,25.68,0.941,38.586
			c44.621,1360,227.289,3061.137,444.621,2889.238c1528.848-1209.238,2211.613,432.309,2284.23,53.07
			c204.219-1066.535,335.148-1986.613,400-2595.379C4783.812,2931.859,4788.687,2801.507,4784.796,2680.523L4784.796,2680.523z
			 M2430,4239.796c0,108.023,87.562,195.586,195.578,195.586s195.578-87.562,195.578-195.586
			c0-108.008-87.562-195.578-195.578-195.578S2430,4131.789,2430,4239.796z M3598.851,4232.109
			c0,108.023,87.555,195.578,195.57,195.578c108.015,0,195.578-87.555,195.578-195.578c0-108.016-87.562-195.57-195.578-195.57
			C3686.406,4036.539,3598.851,4124.093,3598.851,4232.109"/>
	</g>
</g>
</svg>
